<mxfile host="65bd71144e">
    <diagram id="wPNtJu8ovcvpb-rHAY7w" name="第 1 页">
        <mxGraphModel dx="1435" dy="991" grid="1" gridSize="10" guides="1" tooltips="1" connect="1" arrows="1" fold="1" page="1" pageScale="1" pageWidth="827" pageHeight="1169" math="0" shadow="0">
            <root>
                <mxCell id="0"/>
                <mxCell id="1" parent="0"/>
                <mxCell id="2" value="Preparing_HiCPro_file" style="rounded=1;whiteSpace=wrap;html=1;strokeWidth=2;fontSize=20;" parent="1" vertex="1">
                    <mxGeometry x="317" y="352" width="220" height="40" as="geometry"/>
                </mxCell>
                <mxCell id="3" value="" style="shape=curlyBracket;whiteSpace=wrap;html=1;rounded=1;strokeWidth=2;" parent="1" vertex="1">
                    <mxGeometry x="542" y="292" width="20" height="160" as="geometry"/>
                </mxCell>
                <mxCell id="26" value="" style="edgeStyle=none;html=1;fontSize=20;entryX=0;entryY=0.5;entryDx=0;entryDy=0;" edge="1" parent="1" source="7" target="21">
                    <mxGeometry relative="1" as="geometry"/>
                </mxCell>
                <mxCell id="7" value="digest_genome.py" style="rounded=1;whiteSpace=wrap;html=1;strokeWidth=2;fontSize=17;strokeColor=#60BCD1;" parent="1" vertex="1">
                    <mxGeometry x="572" y="278" width="160" height="30" as="geometry"/>
                </mxCell>
                <mxCell id="27" value="" style="edgeStyle=none;html=1;fontSize=20;entryX=0;entryY=0.5;entryDx=0;entryDy=0;" edge="1" parent="1" source="8" target="22">
                    <mxGeometry relative="1" as="geometry"/>
                </mxCell>
                <mxCell id="8" value="samtools faidx" style="rounded=1;whiteSpace=wrap;html=1;strokeWidth=2;fontSize=17;strokeColor=#FEC000;" parent="1" vertex="1">
                    <mxGeometry x="572" y="330" width="160" height="30" as="geometry"/>
                </mxCell>
                <mxCell id="28" value="" style="edgeStyle=none;html=1;fontSize=20;entryX=0;entryY=0.5;entryDx=0;entryDy=0;" edge="1" parent="1" source="9" target="23">
                    <mxGeometry relative="1" as="geometry"/>
                </mxCell>
                <mxCell id="9" value="bowtie2-build" style="rounded=1;whiteSpace=wrap;html=1;strokeWidth=2;fontSize=17;strokeColor=#ED5D31;" parent="1" vertex="1">
                    <mxGeometry x="572" y="382" width="160" height="30" as="geometry"/>
                </mxCell>
                <mxCell id="29" value="" style="edgeStyle=none;html=1;fontSize=20;" edge="1" parent="1" source="10" target="24">
                    <mxGeometry relative="1" as="geometry"/>
                </mxCell>
                <mxCell id="10" value="HiC-Pro.config" style="rounded=1;whiteSpace=wrap;html=1;strokeWidth=2;fontSize=17;strokeColor=#C1B4D2;" parent="1" vertex="1">
                    <mxGeometry x="572" y="434" width="160" height="30" as="geometry"/>
                </mxCell>
                <mxCell id="16" value="" style="edgeStyle=none;html=1;" edge="1" parent="1" source="11" target="2">
                    <mxGeometry relative="1" as="geometry"/>
                </mxCell>
                <mxCell id="11" value="" style="shape=curlyBracket;whiteSpace=wrap;html=1;rounded=1;flipH=1;size=0.5;strokeWidth=2;" vertex="1" parent="1">
                    <mxGeometry x="238" y="292" width="20" height="160" as="geometry"/>
                </mxCell>
                <mxCell id="12" value="H3DGIP位置" style="rounded=1;whiteSpace=wrap;html=1;strokeWidth=2;fontSize=17;strokeColor=#60BCD1;" vertex="1" parent="1">
                    <mxGeometry x="71" y="278" width="160" height="30" as="geometry"/>
                </mxCell>
                <mxCell id="13" value="基因组文件" style="rounded=1;whiteSpace=wrap;html=1;strokeWidth=2;fontSize=17;strokeColor=#FEC000;" vertex="1" parent="1">
                    <mxGeometry x="71" y="330" width="160" height="30" as="geometry"/>
                </mxCell>
                <mxCell id="14" value="限制性内切酶类型" style="rounded=1;whiteSpace=wrap;html=1;strokeWidth=2;fontSize=17;strokeColor=#ED5D31;" vertex="1" parent="1">
                    <mxGeometry x="71" y="382" width="160" height="30" as="geometry"/>
                </mxCell>
                <mxCell id="15" value="Hi-C文库位置" style="rounded=1;whiteSpace=wrap;html=1;strokeWidth=2;fontSize=17;strokeColor=#C1B4D2;" vertex="1" parent="1">
                    <mxGeometry x="71" y="434" width="160" height="30" as="geometry"/>
                </mxCell>
                <mxCell id="18" value="&lt;font style=&quot;font-size: 20px&quot;&gt;输入&lt;/font&gt;" style="text;html=1;align=center;verticalAlign=middle;resizable=0;points=[];autosize=1;strokeColor=none;fillColor=none;" vertex="1" parent="1">
                    <mxGeometry x="256" y="347" width="60" height="20" as="geometry"/>
                </mxCell>
                <mxCell id="21" value="限制性酶切片段" style="rounded=1;whiteSpace=wrap;html=1;strokeWidth=2;fontSize=17;strokeColor=#60BCD1;" vertex="1" parent="1">
                    <mxGeometry x="812" y="279" width="160" height="30" as="geometry"/>
                </mxCell>
                <mxCell id="22" value="染色体大小" style="rounded=1;whiteSpace=wrap;html=1;strokeWidth=2;fontSize=17;strokeColor=#FEC000;" vertex="1" parent="1">
                    <mxGeometry x="812" y="331" width="160" height="30" as="geometry"/>
                </mxCell>
                <mxCell id="23" value="基因组 index" style="rounded=1;whiteSpace=wrap;html=1;strokeWidth=2;fontSize=17;strokeColor=#ED5D31;" vertex="1" parent="1">
                    <mxGeometry x="812" y="383" width="160" height="30" as="geometry"/>
                </mxCell>
                <mxCell id="24" value="HiC-Pro 配置文件" style="rounded=1;whiteSpace=wrap;html=1;strokeWidth=2;fontSize=17;strokeColor=#C1B4D2;" vertex="1" parent="1">
                    <mxGeometry x="812" y="435" width="160" height="30" as="geometry"/>
                </mxCell>
                <mxCell id="41" value="" style="edgeStyle=none;html=1;fontSize=20;" edge="1" parent="1" source="32" target="40">
                    <mxGeometry relative="1" as="geometry"/>
                </mxCell>
                <mxCell id="32" value="" style="shape=curlyBracket;whiteSpace=wrap;html=1;rounded=1;flipH=1;size=0.5;strokeWidth=2;" vertex="1" parent="1">
                    <mxGeometry x="980" y="292" width="20" height="160" as="geometry"/>
                </mxCell>
                <mxCell id="36" value="&lt;font style=&quot;font-size: 20px&quot;&gt;输出&lt;/font&gt;" style="text;html=1;align=center;verticalAlign=middle;resizable=0;points=[];autosize=1;strokeColor=none;fillColor=none;" vertex="1" parent="1">
                    <mxGeometry x="742" y="266" width="60" height="20" as="geometry"/>
                </mxCell>
                <mxCell id="37" value="&lt;font style=&quot;font-size: 20px&quot;&gt;输出&lt;/font&gt;" style="text;html=1;align=center;verticalAlign=middle;resizable=0;points=[];autosize=1;strokeColor=none;fillColor=none;" vertex="1" parent="1">
                    <mxGeometry x="742" y="320" width="60" height="20" as="geometry"/>
                </mxCell>
                <mxCell id="38" value="&lt;font style=&quot;font-size: 20px&quot;&gt;输出&lt;/font&gt;" style="text;html=1;align=center;verticalAlign=middle;resizable=0;points=[];autosize=1;strokeColor=none;fillColor=none;" vertex="1" parent="1">
                    <mxGeometry x="742" y="367" width="60" height="20" as="geometry"/>
                </mxCell>
                <mxCell id="39" value="&lt;font style=&quot;font-size: 20px&quot;&gt;输出&lt;/font&gt;" style="text;html=1;align=center;verticalAlign=middle;resizable=0;points=[];autosize=1;strokeColor=none;fillColor=none;" vertex="1" parent="1">
                    <mxGeometry x="742" y="420" width="60" height="20" as="geometry"/>
                </mxCell>
                <mxCell id="40" value="&lt;font style=&quot;font-size: 17px&quot;&gt;HiC-Pro 可执行命令&lt;/font&gt;" style="whiteSpace=wrap;html=1;rounded=1;strokeWidth=2;" vertex="1" parent="1">
                    <mxGeometry x="1060" y="342" width="120" height="60" as="geometry"/>
                </mxCell>
                <mxCell id="42" value="&lt;font style=&quot;font-size: 20px&quot;&gt;输出&lt;/font&gt;" style="text;html=1;align=center;verticalAlign=middle;resizable=0;points=[];autosize=1;strokeColor=none;fillColor=none;" vertex="1" parent="1">
                    <mxGeometry x="998" y="343" width="60" height="20" as="geometry"/>
                </mxCell>
            </root>
        </mxGraphModel>
    </diagram>
</mxfile>